<svg width="11902" height="2498" viewBox="0 0 11902 2498" fill="none" xmlns="http://www.w3.org/2000/svg">
<path d="M1391.86 928.666C1321.55 1051.01 1255.92 1137.22 826.153 890.244C396.391 643.265 104.998 343.869 175.308 221.524C245.618 99.1798 651.006 200.216 1080.77 447.196C1510.53 694.175 1462.17 806.322 1391.86 928.666Z" fill="#FC9D9D"/>
<path d="M1423.43 1269.06C1411.13 1409.63 1387.88 1515.46 894.085 1472.26C400.295 1429.07 9.96709 1280.1 22.2632 1139.53C34.5594 998.956 444.823 920.015 938.613 963.208C1432.4 1006.4 1435.73 1128.49 1423.43 1269.06Z" fill="#FC9D9D"/>
<path d="M1475.82 1371.28C1546.38 1493.48 1588.03 1593.51 1158.76 1841.35C729.49 2089.19 324.304 2191.04 253.75 2068.83C183.196 1946.63 473.99 1646.65 903.258 1398.81C1332.53 1150.97 1405.27 1249.08 1475.82 1371.28Z" fill="#FC9D9D"/>
<path d="M3109.25 928.666C3179.56 1051.01 3245.19 1137.22 3674.95 890.244C4104.71 643.265 4396.11 343.869 4325.8 221.524C4255.49 99.1798 3850.1 200.216 3420.34 447.196C2990.57 694.175 3038.94 806.322 3109.25 928.666Z" fill="#FC9D9D"/>
<path d="M3077.68 1269.06C3089.97 1409.63 3113.23 1515.46 3607.02 1472.26C4100.81 1429.07 4491.14 1280.1 4478.84 1139.53C4466.55 998.956 4056.28 920.015 3562.49 963.208C3068.7 1006.4 3065.38 1128.49 3077.68 1269.06Z" fill="#FC9D9D"/>
<path d="M3025.28 1371.28C2954.73 1493.48 2913.08 1593.51 3342.35 1841.35C3771.62 2089.19 4176.8 2191.04 4247.36 2068.83C4317.91 1946.63 4027.12 1646.65 3597.85 1398.81C3168.58 1150.97 3095.84 1249.08 3025.28 1371.28Z" fill="#FC9D9D"/>
<ellipse cx="2244" cy="1451.5" rx="1316" ry="924.5" fill="#F5E7E7"/>
<circle cx="1523" cy="1144" r="136" fill="#5B5656"/>
<circle cx="3055" cy="1144" r="136" fill="#5B5656"/>
<path d="M1718 1506C1907.81 1636.55 2406.74 1819.32 2884 1506" stroke="#FC9D9D" stroke-width="18" stroke-linecap="round"/>
<circle cx="2334.16" cy="2032.84" r="464.841" fill="#D3BE73"/>
<circle cx="2267.84" cy="2032.84" r="464.841" fill="#F4DA7B"/>
<path d="M5140.59 1543.8C5108.02 1543.8 5078.23 1535.59 5051.24 1519.15C5024.54 1502.72 5003.26 1480.72 4987.42 1453.13C4971.86 1425.26 4964.09 1394.3 4964.09 1360.26L4964.97 1079.01C4964.97 1045.56 4972.6 1015.33 4987.86 988.338C5003.11 961.049 5024.09 939.189 5050.8 922.757C5077.79 906.031 5107.72 897.668 5140.59 897.668C5174.04 897.668 5203.82 905.738 5229.94 921.876C5256.35 938.015 5277.33 959.876 5292.88 987.458C5308.72 1014.75 5316.65 1045.26 5316.65 1079.01V1120.38C5316.65 1122.73 5315.47 1123.9 5313.12 1123.9H5211.89C5209.54 1123.9 5208.37 1122.73 5208.37 1120.38V1079.01C5208.37 1059.06 5201.91 1041.89 5189 1027.51C5176.09 1013.13 5159.95 1005.94 5140.59 1005.94C5119.17 1005.94 5102.73 1013.28 5091.29 1027.95C5079.85 1042.62 5074.12 1059.64 5074.12 1079.01V1360.26C5074.12 1382.27 5080.58 1400.32 5093.49 1414.4C5106.4 1428.19 5122.1 1435.09 5140.59 1435.09C5159.95 1435.09 5176.09 1427.46 5189 1412.2C5201.91 1396.65 5208.37 1379.33 5208.37 1360.26V1318.45C5208.37 1316.1 5209.54 1314.93 5211.89 1314.93H5314C5316.35 1314.93 5317.53 1316.1 5317.53 1318.45V1360.26C5317.53 1394.01 5309.6 1424.82 5293.76 1452.69C5277.62 1480.28 5256.35 1502.43 5229.94 1519.15C5203.53 1535.59 5173.74 1543.8 5140.59 1543.8ZM5838.38 1543.8C5806.39 1543.8 5776.9 1535.59 5749.91 1519.15C5723.21 1502.72 5701.64 1480.86 5685.21 1453.57C5669.07 1425.99 5661 1395.77 5661 1362.9L5661.88 1077.25C5661.88 1043.8 5669.95 1013.72 5686.09 987.018C5701.93 960.022 5723.35 938.455 5750.35 922.316C5777.34 905.884 5806.69 897.668 5838.38 897.668C5871.24 897.668 5900.73 905.738 5926.85 921.876C5953.26 938.015 5974.38 959.729 5990.23 987.018C6006.37 1014.01 6014.44 1044.09 6014.44 1077.25L6015.32 1362.9C6015.32 1395.77 6007.39 1425.84 5991.55 1453.13C5975.41 1480.72 5953.99 1502.72 5927.29 1519.15C5900.58 1535.59 5870.95 1543.8 5838.38 1543.8ZM5838.38 1435.09C5856.57 1435.09 5872.42 1427.75 5885.91 1413.08C5899.41 1398.11 5906.16 1381.39 5906.16 1362.9L5905.28 1077.25C5905.28 1057.29 5898.97 1040.42 5886.35 1026.63C5873.74 1012.84 5857.74 1005.94 5838.38 1005.94C5819.89 1005.94 5804.05 1012.69 5790.84 1026.19C5777.64 1039.69 5771.03 1056.71 5771.03 1077.25V1362.9C5771.03 1382.56 5777.64 1399.58 5790.84 1413.96C5804.05 1428.04 5819.89 1435.09 5838.38 1435.09ZM6478.51 1535H6376.39C6373.46 1535 6371.99 1533.53 6371.99 1530.6L6372.87 911.313C6372.87 908.965 6374.05 907.792 6376.39 907.792H6477.63C6479.98 907.792 6481.15 908.965 6481.15 911.313L6482.03 1530.6C6482.03 1533.53 6480.86 1535 6478.51 1535ZM6947.86 1535H6857.63C6852.94 1535 6850.59 1532.95 6850.59 1528.84L6849.71 914.834C6849.71 910.139 6852.06 907.792 6856.75 907.792H6938.18L7090.47 1262.99L7086.07 914.834C7086.07 910.139 7088.71 907.792 7093.99 907.792H7183.34C7186.86 907.792 7188.62 910.139 7188.62 914.834L7189.5 1529.72C7189.5 1533.24 7188.04 1535 7185.1 1535H7105.88L6949.62 1203.13L6956.23 1527.96C6956.23 1532.65 6953.44 1535 6947.86 1535Z" fill="#5B5656"/>
<path d="M7525.93 1530.6L7637.73 911.313C7638.32 908.965 7639.78 907.792 7642.13 907.792H7772.86C7775.2 907.792 7776.67 908.965 7777.26 911.313L7884.65 1530.6C7884.95 1533.53 7883.77 1535 7881.13 1535H7781.22C7778.28 1535 7776.67 1533.53 7776.38 1530.6L7766.69 1464.58H7643.89L7634.21 1530.6C7633.92 1533.53 7632.45 1535 7629.81 1535H7529.45C7527.11 1535 7525.93 1533.53 7525.93 1530.6ZM7702.43 1115.1L7661.94 1368.18H7748.65L7711.68 1115.1L7706.39 1081.65L7702.43 1115.1ZM8302.95 1535H8201.72C8199.66 1535 8198.78 1533.53 8199.08 1530.6L8302.07 1208.85L8200.84 911.313C8200.25 908.965 8201.13 907.792 8203.48 907.792H8304.71C8307.64 907.792 8309.41 908.965 8309.99 911.313L8370.29 1125.66L8431.47 911.313C8432.06 908.965 8433.97 907.792 8437.19 907.792H8537.11C8539.46 907.792 8540.34 908.965 8539.75 911.313L8438.96 1207.97L8540.63 1530.6C8541.8 1533.53 8540.92 1535 8537.99 1535H8437.19C8434.55 1535 8432.65 1533.53 8431.47 1530.6L8370.29 1297.76L8308.23 1530.6C8307.94 1533.53 8306.18 1535 8302.95 1535ZM9049.16 1543.8C9017.17 1543.8 8987.68 1535.59 8960.69 1519.15C8933.98 1502.72 8912.42 1480.86 8895.99 1453.57C8879.85 1425.99 8871.78 1395.77 8871.78 1362.9L8872.66 1077.25C8872.66 1043.8 8880.73 1013.72 8896.87 987.018C8912.71 960.022 8934.13 938.455 8961.13 922.316C8988.12 905.884 9017.47 897.668 9049.16 897.668C9082.02 897.668 9111.51 905.738 9137.63 921.876C9164.03 938.015 9185.16 959.729 9201.01 987.018C9217.15 1014.01 9225.21 1044.09 9225.21 1077.25L9226.1 1362.9C9226.1 1395.77 9218.17 1425.84 9202.33 1453.13C9186.19 1480.72 9164.77 1502.72 9138.07 1519.15C9111.36 1535.59 9081.73 1543.8 9049.16 1543.8ZM9049.16 1435.09C9067.35 1435.09 9083.19 1427.75 9096.69 1413.08C9110.19 1398.11 9116.94 1381.39 9116.94 1362.9L9116.06 1077.25C9116.06 1057.29 9109.75 1040.42 9097.13 1026.63C9084.51 1012.84 9068.52 1005.94 9049.16 1005.94C9030.67 1005.94 9014.82 1012.69 9001.62 1026.19C8988.42 1039.69 8981.81 1056.71 8981.81 1077.25V1362.9C8981.81 1382.56 8988.42 1399.58 9001.62 1413.96C9014.82 1428.04 9030.67 1435.09 9049.16 1435.09ZM9877.67 1535H9586.29C9583.95 1535 9582.77 1533.53 9582.77 1530.6L9583.65 912.193C9583.65 909.259 9585.12 907.792 9588.05 907.792H9688.41C9691.34 907.792 9692.81 909.259 9692.81 912.193L9691.93 1424.08H9877.67C9880.6 1424.08 9882.07 1425.55 9882.07 1428.48V1530.6C9882.07 1533.53 9880.6 1535 9877.67 1535ZM10396.3 1543.8C10364.3 1543.8 10334.8 1535.59 10307.9 1519.15C10281.1 1502.72 10259.6 1480.86 10243.1 1453.57C10227 1425.99 10218.9 1395.77 10218.9 1362.9L10219.8 1077.25C10219.8 1043.8 10227.9 1013.72 10244 987.018C10259.9 960.022 10281.3 938.455 10308.3 922.316C10335.3 905.884 10364.6 897.668 10396.3 897.668C10429.2 897.668 10458.7 905.738 10484.8 921.876C10511.2 938.015 10532.3 959.729 10548.2 987.018C10564.3 1014.01 10572.4 1044.09 10572.4 1077.25L10573.3 1362.9C10573.3 1395.77 10565.3 1425.84 10549.5 1453.13C10533.4 1480.72 10511.9 1502.72 10485.2 1519.15C10458.5 1535.59 10428.9 1543.8 10396.3 1543.8ZM10396.3 1435.09C10414.5 1435.09 10430.4 1427.75 10443.9 1413.08C10457.4 1398.11 10464.1 1381.39 10464.1 1362.9L10463.2 1077.25C10463.2 1057.29 10456.9 1040.42 10444.3 1026.63C10431.7 1012.84 10415.7 1005.94 10396.3 1005.94C10377.8 1005.94 10362 1012.69 10348.8 1026.19C10335.6 1039.69 10329 1056.71 10329 1077.25V1362.9C10329 1382.56 10335.6 1399.58 10348.8 1413.96C10362 1428.04 10377.8 1435.09 10396.3 1435.09ZM11122.3 1535H11020.6C11018 1535 11016.6 1533.53 11016.6 1530.6V1016.51H10899.6C10896.6 1016.51 10895.2 1015.04 10895.2 1012.11L10896 911.313C10896 908.965 10897.2 907.792 10899.6 907.792H11242C11245.2 907.792 11246.8 908.965 11246.8 911.313V1012.11C11246.8 1015.04 11245.7 1016.51 11243.3 1016.51H11124.9L11125.8 1530.6C11125.8 1533.53 11124.6 1535 11122.3 1535ZM11874.2 1535H11582.8C11580.5 1535 11579.3 1533.53 11579.3 1530.6L11580.2 912.193C11580.2 909.259 11581.7 907.792 11584.6 907.792H11684.9C11687.9 907.792 11689.3 909.259 11689.3 912.193L11688.5 1424.08H11874.2C11877.1 1424.08 11878.6 1425.55 11878.6 1428.48V1530.6C11878.6 1533.53 11877.1 1535 11874.2 1535Z" fill="#FC9D9D"/>
</svg>
